<svg viewBox="0 0 1200 630" xmlns="http://www.w3.org/2000/svg">
  <defs>
    <linearGradient id="grad1" x1="0%" y1="0%" x2="100%" y2="100%">
      <stop offset="0%" style="stop-color:#FF6F61;stop-opacity:1" />
      <stop offset="100%" style="stop-color:#6A5ACD;stop-opacity:1" />
    </linearGradient>
    <linearGradient id="grad2" x1="0%" y1="100%" x2="100%" y2="0%">
      <stop offset="0%" style="stop-color:#00BFFF;stop-opacity:1" />
      <stop offset="100%" style="stop-color:#FFD700;stop-opacity:1" />
    </linearGradient>
    <radialGradient id="grad3" cx="50%" cy="50%" r="50%" fx="50%" fy="50%">
      <stop offset="0%" style="stop-color:#FF1493;stop-opacity:1" />
      <stop offset="100%" style="stop-color:#1E90FF;stop-opacity:1" />
    </radialGradient>
  </defs>
  <g fill="none" stroke-width="3">
    <path d="M150 450 Q300 100 450 400 T750 200" stroke="url(#grad1)" opacity="0.8" />
    <path d="M600 500 C700 300 900 450 1100 200" stroke="url(#grad2)" opacity="0.7" />
    <circle cx="200" cy="200" r="100" fill="url(#grad3)" opacity="0.5"/>
    <circle cx="1000" cy="400" r="150" fill="url(#grad1)" opacity="0.4"/>
    <path d="M800 550 L900 400 Q950 550 1000 450" stroke="url(#grad2)" stroke-width="5" opacity="0.6" />
    <path d="M300 100 C450 250 600 150 800 100" stroke="url(#grad1)" stroke-width="2" opacity="0.5" />
    <circle cx="400" cy="500" r="50" fill="url(#grad3)" opacity="0.3"/>
    <ellipse cx="600" cy="300" rx="80" ry="40" fill="url(#grad1)" opacity="0.4"/>
    <path d="M100 350 C200 300 400 600 600 400" stroke="url(#grad2)" stroke-width="4" opacity="0.6" />
    <path d="M1100 500 Q1150 300 1200 400" stroke="url(#grad3)" stroke-width="3" opacity="0.5" />
  </g>
</svg>