<svg viewBox="0 0 1200 630" xmlns="http://www.w3.org/2000/svg">
  <defs>
    <linearGradient id="grad1" x1="0%" y1="0%" x2="100%" y2="100%">
      <stop offset="0%" style="stop-color:#ff6f61;stop-opacity:1" />
      <stop offset="100%" style="stop-color:#d742a0;stop-opacity:1" />
    </linearGradient>
    <linearGradient id="grad2" x1="0%" y1="100%" x2="100%" y2="0%">
      <stop offset="0%" style="stop-color:#00bcd4;stop-opacity:1" />
      <stop offset="100%" style="stop-color:#3f51b5;stop-opacity:1" />
    </linearGradient>
    <radialGradient id="grad3" cx="50%" cy="50%" r="50%" fx="50%" fy="50%">
      <stop offset="0%" style="stop-color:#ff9800;stop-opacity:0.8" />
      <stop offset="100%" style="stop-color:#ffeb3b;stop-opacity:0.4" />
    </radialGradient>
  </defs>
  <g fill="none" stroke-width="5" stroke-linecap="round">
    <path d="M100 200 C 200 100, 400 300, 300 400" stroke="url(#grad1)" opacity="0.7" />
    <path d="M200 300 C 300 200, 500 400, 400 500" stroke="url(#grad2)" opacity="0.5" />
    <path d="M600 100 C 700 50, 900 250, 800 350" stroke="url(#grad3)" opacity="0.6" />
    <circle cx="150" cy="150" r="70" fill="url(#grad1)" opacity="0.5" />
    <circle cx="900" cy="500" r="100" fill="url(#grad2)" opacity="0.4" />
    <ellipse cx="400" cy="200" rx="90" ry="50" fill="url(#grad3)" opacity="0.3" />
    <path d="M800 200 C 850 100, 950 300, 900 400" stroke="#4caf50" stroke-width="8" opacity="0.6" />
    <path d="M300 500 C 350 400, 650 600, 600 550" stroke="#e91e63" stroke-width="6" opacity="0.8" />
    <circle cx="500" cy="300" r="50" fill="url(#grad1)" opacity="0.5" />
    <circle cx="750" cy="450" r="80" fill="url(#grad2)" opacity="0.5" />
  </g>
</svg>