<svg viewBox="0 0 1200 630" xmlns="http://www.w3.org/2000/svg">
  <defs>
    <linearGradient id="grad1" x1="0%" y1="0%" x2="100%" y2="100%">
      <stop offset="0%" style="stop-color:#FF6F61;stop-opacity:1" />
      <stop offset="100%" style="stop-color:#6A5B8A;stop-opacity:1" />
    </linearGradient>
    <linearGradient id="grad2" x1="0%" y1="100%" x2="100%" y2="0%">
      <stop offset="0%" style="stop-color:#00BFFF;stop-opacity:1" />
      <stop offset="100%" style="stop-color:#FF1493;stop-opacity:1" />
    </linearGradient>
    <radialGradient id="grad3" cx="50%" cy="50%" r="50%" fx="50%" fy="50%">
      <stop offset="0%" style="stop-color:#FF8C00;stop-opacity:1" />
      <stop offset="100%" style="stop-color:#FFD700;stop-opacity:0.5" />
    </radialGradient>
  </defs>
  <g fill="none" stroke="url(#grad1)" stroke-width="8" opacity="0.7">
    <path d="M100 200 C 150 100, 300 100, 400 200 S 700 300, 800 200" />
    <path d="M300 400 C 350 300, 500 300, 600 400 S 900 500, 1000 400" />
  </g>
  <g fill="none" stroke="url(#grad2)" stroke-width="5" opacity="0.6">
    <circle cx="300" cy="150" r="50" />
    <circle cx="900" cy="150" r="80" />
  </g>
  <g fill="none" stroke="url(#grad3)" stroke-width="4" opacity="0.5">
    <line x1="0" y1="0" x2="1200" y2="630" />
    <line x1="1200" y1="0" x2="0" y2="630" />
  </g>
  <g fill="none" stroke="#FF69B4" stroke-width="2" opacity="0.8">
    <ellipse cx="600" cy="300" rx="200" ry="100" />
    <ellipse cx="600" cy="450" rx="150" ry="75" />
  </g>
  <g fill="url(#grad1)" opacity="0.5">
    <circle cx="200" cy="500" r="30" />
    <circle cx="1000" cy="500" r="40" />
  </g>
  <g fill="url(#grad2)" opacity="0.3">
    <rect x="100" y="50" width="200" height="200" rx="20" />
    <rect x="900" y="50" width="200" height="200" rx="20" />
  </g>
</svg>